<svg aria-hidden="true" style="position: absolute; width: 0; height: 0; overflow: hidden;" version="1.1" xmlns="http://www.w3.org/2000/svg" xmlns:xlink="http://www.w3.org/1999/xlink">
<defs>
    <symbol id="icon-1" width="35" height="35" viewBox="0 0 35 35" fill="none" xmlns="http://www.w3.org/2000/svg">
        <path d="M14.8027 14.4683C12.1365 14.4683 9.96741 16.6374 9.96741 19.3035C9.96741 21.9697 12.1365 24.1388 14.8027 24.1388C17.4689 24.1388 19.6379 21.9697 19.6379 19.3035C19.6379 16.6374 17.4689 14.4683 14.8027 14.4683ZM14.8027 22.7582C12.8977 22.7582 11.348 21.2084 11.348 19.3035C11.348 17.3987 12.8978 15.8488 14.8027 15.8488C16.7075 15.8488 18.2574 17.3986 18.2574 19.3035C18.2574 21.2085 16.7076 22.7582 14.8027 22.7582Z" fill="#030305"/>
        <path d="M14.8028 12.2996C10.9407 12.2996 7.79871 15.4416 7.79871 19.3036C7.79871 23.1657 10.9407 26.3077 14.8028 26.3077C18.6648 26.3077 21.8068 23.1657 21.8068 19.3036C21.8068 15.4416 18.6648 12.2996 14.8028 12.2996ZM14.8028 24.9271C11.7019 24.9271 9.17927 22.4044 9.17927 19.3036C9.17927 16.2028 11.702 13.6801 14.8028 13.6801C17.9035 13.6801 20.4263 16.2028 20.4263 19.3036C20.4263 22.4044 17.9036 24.9271 14.8028 24.9271Z" fill="#030305"/>
        <path d="M33.6447 8.19518H32.1061C31.9475 7.69273 31.7454 7.20524 31.5021 6.73753L32.5904 5.64919C32.86 5.37959 32.86 4.94257 32.5904 4.67298L29.6621 1.74465C29.3925 1.47506 28.9555 1.47506 28.6859 1.74465L27.5973 2.83315C27.1291 2.58963 26.642 2.38761 26.1406 2.22907V0.690282C26.1406 0.309016 25.8316 0 25.4503 0H21.3086C20.9273 0 20.6183 0.309016 20.6183 0.690282V2.22892C20.1166 2.38753 19.6292 2.58955 19.1608 2.83315L18.0723 1.74465C17.8027 1.47506 17.3656 1.47506 17.0961 1.74465L14.3398 4.50094H12.7601C12.3788 4.50094 12.0698 4.80996 12.0698 5.19122V7.02753C11.7193 7.10522 11.3722 7.1978 11.0309 7.30487L10.1132 5.71553C10.0217 5.557 9.87087 5.44126 9.69408 5.39394C9.5173 5.34661 9.32885 5.37139 9.17024 5.46289L5.63239 7.50528C5.47386 7.59686 5.35812 7.74764 5.3108 7.92443C5.2634 8.1013 5.28825 8.28967 5.37975 8.44828L6.29928 10.0409C6.03575 10.283 5.78218 10.5366 5.54005 10.8001L3.94741 9.88061C3.7888 9.78904 3.60051 9.76434 3.42357 9.81166C3.24678 9.85906 3.09599 9.97472 3.00441 10.1333L0.961869 13.6711C0.771275 14.0013 0.884404 14.4234 1.21451 14.614L2.80385 15.5316C2.69685 15.873 2.6042 16.2202 2.52651 16.5707H0.690282C0.309016 16.5707 0 16.8797 0 17.261V21.3461C0 21.7274 0.309016 22.0364 0.690282 22.0364H2.52651C2.6042 22.3869 2.69685 22.734 2.80385 23.0754L1.21451 23.993C1.05598 24.0845 0.94024 24.2353 0.892918 24.4121C0.845518 24.589 0.870368 24.7773 0.961869 24.936L3.00441 28.4738C3.19508 28.804 3.61731 28.917 3.94734 28.7265L5.53997 27.807C5.78203 28.0705 6.03567 28.3241 6.2992 28.5662L5.37967 30.1589C5.28817 30.3174 5.26332 30.5058 5.31072 30.6827C5.35812 30.8595 5.47378 31.0103 5.63231 31.1019L9.17016 33.1444C9.50027 33.335 9.92249 33.2219 10.1131 32.8918L11.0306 31.3024C11.3721 31.4095 11.7191 31.5022 12.0696 31.5798V33.416C12.0696 33.7973 12.3787 34.1063 12.7599 34.1063H16.8451C17.2264 34.1063 17.5354 33.7973 17.5354 33.416V31.5798C17.8859 31.5021 18.233 31.4094 18.5744 31.3024L19.4919 32.8918C19.6827 33.2219 20.1048 33.335 20.4349 33.1444L23.9727 31.1019C24.1312 31.0103 24.247 30.8595 24.2943 30.6827C24.3417 30.5058 24.3169 30.3174 24.2254 30.1589L23.3058 28.5662C23.5694 28.3241 23.823 28.0705 24.0651 27.807L25.6577 28.7265C25.9879 28.9171 26.4101 28.8039 26.6006 28.4738L28.6432 24.936C28.7347 24.7774 28.7595 24.589 28.7121 24.4121C28.6647 24.2353 28.549 24.0845 28.3905 23.993L26.8012 23.0754C26.9082 22.734 27.0008 22.3869 27.0785 22.0364H28.9151C29.2964 22.0364 29.6054 21.7274 29.6054 21.3461V20.2183C29.625 20.2025 29.6441 20.1859 29.6621 20.168L32.5904 17.2389C32.8599 16.9693 32.8599 16.5322 32.5903 16.2627L31.5022 15.1745C31.7453 14.7074 31.9472 14.2201 32.1061 13.7174H33.6447C34.026 13.7174 34.335 13.4083 34.335 13.0271V8.88538C34.335 8.50419 34.0259 8.19518 33.6447 8.19518ZM28.2248 20.6558H26.5116C26.1759 20.6558 25.8888 20.8974 25.8315 21.2282C25.7177 21.8848 25.5449 22.5322 25.3177 23.1527C25.2023 23.4677 25.3302 23.8201 25.6207 23.9878L27.1028 24.8435L25.7504 27.1857L24.2652 26.3283C23.9749 26.1608 23.6059 26.2259 23.3907 26.483C22.965 26.9918 22.4911 27.4657 21.9822 27.8916C21.725 28.1068 21.6597 28.4757 21.8274 28.7661L22.6849 30.2513L20.3426 31.6035L19.487 30.1216C19.3191 29.831 18.9667 29.7032 18.6518 29.8186C18.0313 30.0457 17.3838 30.2186 16.7274 30.3323C16.3966 30.3896 16.155 30.6767 16.155 31.0124V32.7256H13.4504V31.0124C13.4504 30.6767 13.2088 30.3896 12.8779 30.3323C12.2215 30.2186 11.574 30.0457 10.9535 29.8186C10.6385 29.7032 10.2861 29.8311 10.1184 30.1216L9.26273 31.6035L6.92046 30.2513L7.77794 28.7661C7.9456 28.4757 7.88033 28.1068 7.62316 27.8916C7.1142 27.4656 6.64036 26.9918 6.2146 26.483C5.99931 26.2259 5.63047 26.1606 5.3401 26.3283L3.85492 27.1857L2.50265 24.8435L3.98461 23.9879C4.27514 23.8201 4.403 23.4677 4.28765 23.1527C4.06047 22.5322 3.88759 21.8848 3.77392 21.2284C3.71655 20.8976 3.42955 20.6559 3.09377 20.6559H1.38056V17.9513H3.09377C3.42955 17.9513 3.71663 17.7097 3.77392 17.3788C3.88759 16.7224 4.06047 16.075 4.28765 15.4545C4.403 15.1395 4.27514 14.7871 3.98461 14.6193L2.50258 13.7637L3.85492 11.4214L5.3401 12.2789C5.63055 12.4465 5.99931 12.3812 6.2146 12.1241C6.64059 11.6152 7.11443 11.1413 7.62316 10.7155C7.88033 10.5003 7.9456 10.1314 7.77794 9.84104L6.92046 8.35586L9.26273 7.00352L10.1184 8.48548C10.2861 8.77601 10.6383 8.90387 10.9535 8.78859C11.5741 8.56141 12.2216 8.38853 12.878 8.27479C13.2088 8.21749 13.4504 7.93042 13.4504 7.59463V5.88143H16.155V7.59463C16.155 7.93042 16.3966 8.21749 16.7274 8.27479C17.3838 8.38853 18.0313 8.56141 18.6518 8.78859C18.9667 8.90394 19.3192 8.77609 19.487 8.48555L20.3426 7.0036L22.6849 8.35594L21.8274 9.84111C21.6597 10.1315 21.7251 10.5004 21.9822 10.7156C22.491 11.1415 22.9649 11.6154 23.3907 12.1242C23.6059 12.3814 23.9749 12.4465 24.2652 12.279L25.7505 11.4215L27.1028 13.7638L25.6207 14.6194C25.3302 14.7872 25.2023 15.1396 25.3177 15.4546C25.5449 16.075 25.7177 16.7225 25.8315 17.379C25.8888 17.7098 26.1759 17.9514 26.5116 17.9514H28.2248V20.6558ZM32.9544 12.3369H31.5846C31.2682 12.3369 30.9924 12.5519 30.9152 12.8587C30.7306 13.592 30.4406 14.2918 30.0529 14.9388C29.8902 15.2104 29.9331 15.5579 30.1569 15.7817L31.1262 16.7509L29.6054 18.2721V17.261C29.6054 16.8798 29.2964 16.5707 28.9151 16.5707H27.0788C27.0011 16.2202 26.9085 15.8731 26.8015 15.5317L28.3908 14.6141C28.5494 14.5225 28.6651 14.3717 28.7124 14.195C28.7598 14.0182 28.735 13.8297 28.6435 13.6712L26.6009 10.1333C26.4102 9.80315 25.9881 9.69017 25.658 9.88069L24.0654 10.8002C23.8233 10.5367 23.5697 10.283 23.3061 10.041L24.2257 8.44836C24.3172 8.28982 24.342 8.10137 24.2946 7.92451C24.2472 7.74772 24.1316 7.59693 23.973 7.50535L20.4352 5.46273C20.2766 5.37116 20.0883 5.34638 19.9113 5.39378C19.7345 5.44118 19.5837 5.55684 19.4922 5.71538L18.5746 7.30471C18.2332 7.19764 17.886 7.10507 17.5356 7.02737V5.19115C17.5356 4.80988 17.2266 4.50087 16.8453 4.50087H16.2923L17.5842 3.20889L18.5534 4.17804C18.777 4.40177 19.1239 4.44472 19.3955 4.28258C20.0463 3.89372 20.7466 3.6035 21.477 3.41989C21.7838 3.34273 21.999 3.06684 21.999 2.75039V1.38056H24.7601V2.75039C24.7601 3.06677 24.9752 3.34257 25.2819 3.41981C26.012 3.6035 26.7121 3.8938 27.3628 4.28258C27.6343 4.4448 27.9813 4.40177 28.2048 4.17804L29.174 3.20889L31.1261 5.16101L30.1569 6.13016C29.9332 6.35389 29.8902 6.70118 30.0527 6.97269C30.4409 7.62132 30.731 8.32142 30.9151 9.05366C30.9923 9.36053 31.2681 9.57566 31.5846 9.57566H32.9544V12.3369Z" fill="#030305"/>
    </symbol>

<symbol id="icon-2" viewBox="0 0 32 32">
<path d="M30.807 22.235c-1.844-0.747-3.778-1.354-5.759-1.818-0.291-3.544-1.781-6.733-4.087-8.653l4.62-4.536c0.112-0.11 0.169-0.221 0.169-0.386s-0.056-0.276-0.169-0.386l-1.573-1.545c-0.225-0.221-0.562-0.221-0.787 0l-4.887 4.815c-0.040-0.148-0.058-0.302-0.058-0.457v-0.938c1.349-0.772 2.248-2.207 2.248-3.807 0-0.019-0.001-0.037-0.002-0.055s0.002-0.037 0.002-0.055c0-2.428-2.023-4.414-4.496-4.414s-4.496 1.986-4.496 4.414c0 0.019 0.001 0.037 0.002 0.055s-0.002 0.037-0.002 0.055c0 1.545 0.899 3.034 2.248 3.807v0.938c0 0.607-0.393 1.214-1.011 1.49-3.16 1.552-5.37 5.282-5.706 9.581-2.067 0.487-4.038 1.15-5.87 1.95-0.169 0.055-0.337 0.221-0.337 0.441s0.056 0.386 0.225 0.497l2.248 1.49c0.169 0.11 0.337 0.11 0.506 0.055 1.103-0.361 2.171-0.677 3.211-0.949 0.075 3.105 0.683 5.889 1.734 7.901 0.112 0.166 0.281 0.276 0.506 0.276h2.81c0.169 0 0.45-0.11 0.506-0.276s0.112-0.386 0-0.552c-0.674-1.269-1.011-3.090-1.068-5.352 2.922-0.552 6.125-0.552 8.991 0-0.056 2.262-0.393 4.083-1.068 5.352-0.112 0.165-0.112 0.386 0 0.552s0.337 0.276 0.506 0.276h2.81c0.225 0 0.393-0.11 0.45-0.276 1.053-2.016 1.662-4.808 1.735-7.92 1.058 0.276 2.144 0.599 3.267 0.969 0.056 0.055 0.112 0.055 0.169 0.055 0.112 0 0.225-0.055 0.281-0.166l2.248-1.49c0.169-0.11 0.225-0.276 0.225-0.497 0-0.166-0.168-0.386-0.337-0.442zM23.839 20.138c-2.304-0.471-4.65-0.741-6.966-0.809-1.186-0.041-2.368-0.031-3.536 0.031l6.85-6.725c2.023 1.655 3.372 4.414 3.653 7.503zM14.576 7.399c-0.003-0.002-0.006-0.004-0.009-0.006-0.062-0.029-0.123-0.060-0.182-0.093-0.934-0.516-1.596-1.455-1.711-2.548-0-0.002-0-0.005-0.001-0.007-0.005-0.047-0.008-0.095-0.011-0.142-0.001-0.012-0.001-0.025-0.002-0.037-0.002-0.051-0.004-0.101-0.004-0.153 0-1.821 1.517-3.31 3.372-3.31s3.372 1.49 3.315 3.31c0 1.269-0.73 2.428-1.911 2.979-0.052 0.026-0.098 0.055-0.138 0.086-0.392 0.157-0.819 0.245-1.267 0.245-0.519 0-1.012-0.117-1.452-0.325zM13.275 11.641c1.012-0.497 1.63-1.435 1.63-2.483v-0.472c0.36 0.092 0.736 0.141 1.124 0.141 0.368 0 0.725-0.045 1.068-0.128v0.459c0 0.441 0.169 0.938 0.393 1.324l-9.216 9.048c0.506-3.586 2.416-6.621 5.001-7.89zM22.434 30.897h-1.63c0.562-1.435 0.843-3.31 0.843-5.517 0-0.276-0.169-0.497-0.45-0.552-3.259-0.717-7.024-0.717-10.34 0-0.281 0.055-0.45 0.276-0.45 0.552 0 2.207 0.281 4.083 0.843 5.517h-1.63c-0.899-1.876-1.405-4.414-1.461-7.283 0.225-0.055 0.393-0.11 0.618-0.166 4.889-1.048 9.272-1.048 14.105-0.055 0.337 0.055 0.674 0.165 1.011 0.221-0.056 2.869-0.562 5.407-1.461 7.283zM28.335 23.669c-3.984-1.279-7.521-1.987-11.009-2.126-2.903-0.13-5.762 0.133-8.827 0.802-0.337 0.11-0.731 0.165-1.068 0.276-0.009 0.005-0.018 0.009-0.027 0.014-1.173 0.289-2.377 0.634-3.626 1.034l-1.18-0.772c1.574-0.67 3.345-1.195 5.128-1.576 0.014 0.008 0.028 0.018 0.042 0.032 0.056-0.055 0.112-0.055 0.169-0.055 0.012-0.012 0.024-0.020 0.035-0.027 0.044-0.009 0.089-0.019 0.133-0.028 0.112-0.055 0.225-0.11 0.281-0.166l10.227-9.986c0.055-0.054 0.096-0.114 0.125-0.178l4.877-4.788 0.787 0.772-13.037 12.8c-0.169 0.165-0.225 0.386-0.112 0.607s0.337 0.331 0.562 0.331c0.007-0.001 0.015-0.001 0.022-0.002 0.011 0.001 0.023 0.002 0.034 0.002 2.436-0.229 4.95-0.245 7.438-0.023 1.458 0.136 2.909 0.351 4.343 0.642 0.232 0.049 0.464 0.1 0.694 0.153h0.022c1.736 0.386 3.441 0.884 5.091 1.49l-1.124 0.772z"></path>
</symbol>
    <symbol id="icon-3" width="34" height="34" viewBox="0 0 34 34" fill="none" xmlns="http://www.w3.org/2000/svg">
        <path d="M17 0C7.65 0 0 7.65 0 17C0 26.35 7.65 34 17 34C26.35 34 34 26.35 34 17C34 7.65 26.35 0 17 0ZM17 32.8666C8.27336 32.8666 1.13336 25.7266 1.13336 17C1.13336 8.27336 8.27336 1.13336 17 1.13336C25.7266 1.13336 32.8666 8.27336 32.8666 17C32.8666 25.7266 25.7266 32.8666 17 32.8666Z" fill="#030305"/>
        <path d="M19.2667 20.9667C19.2667 19.72 18.2467 18.7 17 18.7C15.7534 18.7 14.7334 19.72 14.7334 20.9667C14.7334 22.2133 15.7534 23.2333 17 23.2333C18.2467 23.2334 19.2667 22.2134 19.2667 20.9667ZM17 22.1C16.3767 22.1 15.8667 21.59 15.8667 20.9667C15.8667 20.3433 16.3767 19.8333 17 19.8333C17.6234 19.8333 18.1334 20.3433 18.1334 20.9667C18.1334 21.59 17.6234 22.1 17 22.1Z" fill="#030305"/>
        <path d="M18.7 17C18.7 18.2467 19.72 19.2667 20.9666 19.2667C22.2132 19.2667 23.2332 18.2467 23.2332 17C23.2332 15.7534 22.2132 14.7334 20.9666 14.7334C19.72 14.7334 18.7 15.7534 18.7 17ZM22.1 17C22.1 17.6234 21.59 18.1334 20.9666 18.1334C20.3432 18.1334 19.8332 17.6234 19.8332 17C19.8332 16.3767 20.3432 15.8667 20.9666 15.8667C21.59 15.8667 22.1 16.3767 22.1 17Z" fill="#030305"/>
        <path d="M14.7334 13.0334C14.7334 14.28 15.7534 15.3 17 15.3C18.2467 15.3 19.2667 14.28 19.2667 13.0334C19.2667 11.7867 18.2467 10.7667 17 10.7667C15.7534 10.7667 14.7334 11.7867 14.7334 13.0334ZM17 11.9C17.6234 11.9 18.1334 12.41 18.1334 13.0334C18.1334 13.6567 17.6234 14.1667 17 14.1667C16.3767 14.1667 15.8667 13.6567 15.8667 13.0334C15.8667 12.41 16.3767 11.9 17 11.9Z" fill="#030305"/>
        <path d="M13.0334 14.7334C11.7867 14.7334 10.7667 15.7534 10.7667 17C10.7667 18.2467 11.7867 19.2667 13.0334 19.2667C14.28 19.2667 15.3 18.2467 15.3 17C15.3 15.7534 14.28 14.7334 13.0334 14.7334ZM13.0334 18.1334C12.41 18.1334 11.9 17.6234 11.9 17C11.9 16.3767 12.41 15.8667 13.0334 15.8667C13.6567 15.8667 14.1667 16.3767 14.1667 17C14.1667 17.6234 13.6567 18.1334 13.0334 18.1334Z" fill="#030305"/>
        <path d="M2.83342 14.8466C4.42006 15.5266 6.12007 15.8666 7.82007 15.8666H9.23671C9.52007 15.8666 9.74671 15.6966 9.74671 15.47C10.3701 12.6933 12.5801 10.4833 15.3567 9.85998C15.6401 9.80333 15.8101 9.57662 15.8101 9.29333V7.87669C15.8101 6.12004 15.4701 4.47668 14.7901 2.89004C14.6767 2.66339 14.4501 2.49339 14.1667 2.55004C8.33007 3.68333 3.62671 8.38662 2.49342 14.2233C2.43671 14.5066 2.60671 14.7333 2.83342 14.8466ZM13.9967 3.73997C14.4501 5.04333 14.7334 6.40333 14.7334 7.81997V8.78333C11.8434 9.57669 9.57671 11.8433 8.78336 14.7333H7.82007C6.40342 14.7333 5.04342 14.5067 3.74006 13.9967C4.87342 8.95333 8.95342 4.87333 13.9967 3.73997Z" fill="#030305"/>
        <path d="M18.5866 9.8034C21.3632 10.4268 23.5732 12.6368 24.1966 15.4134C24.2532 15.6967 24.4799 15.8667 24.7632 15.8667H26.1799C27.8799 15.8667 29.5799 15.5267 31.1099 14.7901C31.3365 14.6767 31.5065 14.4501 31.4499 14.1667C30.3165 8.33011 25.6132 3.62675 19.7765 2.4934C19.4932 2.43675 19.2665 2.60675 19.1532 2.8334C18.4732 4.42004 18.1332 6.12004 18.1332 7.82004V9.23668C18.1333 9.52004 18.3033 9.74668 18.5866 9.8034ZM19.3233 7.87668C19.3233 6.46004 19.55 5.10004 20.06 3.79669C25.1033 4.93004 29.1266 8.95333 30.2599 13.9967C28.9566 14.45 27.5966 14.7333 26.1799 14.7333H25.2166C24.4232 11.8433 22.1566 9.57668 19.3232 8.83997V7.87668H19.3233Z" fill="#030305"/>
        <path d="M15.47 24.1967C12.6933 23.5733 10.4833 21.3633 9.85997 18.5867C9.80332 18.3033 9.57661 18.1333 9.29332 18.1333H7.87668C6.12004 18.1333 4.47668 18.4733 2.89004 19.1533C2.66339 19.2667 2.49339 19.4933 2.55004 19.7767C3.68339 25.6133 8.38668 30.3167 14.2234 31.45H14.3367C14.5634 31.45 14.7334 31.3367 14.9034 31.1667C15.5834 29.58 15.9234 27.88 15.9234 26.18V24.7634C15.9233 24.48 15.7533 24.2534 15.47 24.1967ZM14.6766 26.1234C14.6766 27.54 14.45 28.9 13.94 30.2034C8.89661 29.07 4.87333 25.0467 3.73997 20.0034C5.04333 19.55 6.40333 19.2667 7.76332 19.21H8.72668C9.52003 22.1 11.7867 24.3667 14.6767 25.16V26.1234H14.6766Z" fill="#030305"/>
        <path d="M31.1666 19.0967C29.58 18.4167 27.88 18.0767 26.18 18.0767H24.7633C24.48 18.0767 24.2533 18.2467 24.1967 18.53C23.5733 21.3067 21.3633 23.5167 18.5867 24.14C18.3033 24.1967 18.1333 24.4234 18.1333 24.7067V26.1233C18.1333 27.8799 18.4733 29.5233 19.1533 31.11C19.2099 31.3366 19.4367 31.45 19.6633 31.45C19.7199 31.45 19.7767 31.45 19.8333 31.3933C25.67 30.2599 30.3733 25.5567 31.5067 19.7199C31.5633 19.4367 31.3933 19.21 31.1666 19.0967ZM20.0033 30.26C19.5499 28.9567 19.2667 27.5967 19.2667 26.18V25.2167C22.1567 24.4233 24.4233 22.1567 25.16 19.3233H26.1234C27.54 19.3233 28.9 19.5499 30.2034 20.0599C29.07 25.1034 25.0466 29.1267 20.0033 30.26Z" fill="#030305"/>
    </symbol>
</defs>
</svg>
